<svg width="50px" height="50px" viewBox="0 0 16 16" xmlns="http://www.w3.org/2000/svg">
  <style>
    <![CDATA[
      .spinner {
        animation: rotate 2s linear infinite;
        transform-origin: center;
      }
      
      @keyframes rotate {
        from { transform: rotate(0deg); }
        to { transform: rotate(360deg); }
      }
    ]]>
  </style>
  <g class="spinner" clip-path="url(#clip0_12419_25574)">
    <path fill-rule="evenodd" clip-rule="evenodd" d="M8 2.66667C5.05448 2.66667 2.66667 5.05448 2.66667 8C2.66667 10.9455 5.05448 13.3333 8 13.3333C10.9455 13.3333 13.3333 10.9455 13.3333 8C13.3333 5.05448 10.9455 2.66667 8 2.66667ZM0 8C0 3.58172 3.58172 0 8 0C12.4183 0 16 3.58172 16 8C16 12.4183 12.4183 16 8 16C3.58172 16 0 12.4183 0 8Z" fill="#0073E7" fill-opacity="0.3"/>
    <path fill-rule="evenodd" clip-rule="evenodd" d="M11.7315 4.2145C9.65576 2.13873 6.29027 2.13873 4.2145 4.2145C2.13873 6.29027 2.13873 9.65576 4.2145 11.7315C4.73344 12.2505 4.73344 13.0918 4.2145 13.6108C3.69556 14.1297 2.85419 14.1297 2.33524 13.6108C-0.778414 10.4971 -0.778414 5.4489 2.33524 2.33524C5.4489 -0.778414 10.4971 -0.778414 13.6108 2.33524C14.1297 2.85419 14.1297 3.69556 13.6108 4.2145C13.0919 4.73344 12.2505 4.73344 11.7315 4.2145Z" fill="url(#paint0_linear_12419_25574)"/>
  </g>
  <defs>
    <linearGradient id="paint0_linear_12419_25574" x1="10.3221" y1="0.92583" x2="1.32884" y2="9.30185" gradientUnits="userSpaceOnUse">
      <stop stop-color="#0073E7"/>
      <stop offset="1" stop-color="#0073E7" stop-opacity="0"/>
    </linearGradient>
    <clipPath id="clip0_12419_25574">
      <rect width="16" height="16" fill="white"/>
    </clipPath>
  </defs>
</svg>